<svg width="256" height="256" viewBox="0 0 256 256" fill="none" xmlns="http://www.w3.org/2000/svg">
<rect width="256" height="256" rx="20" fill="#C1D9FA"/>
<path d="M78.0726 166H91.0326V162.032H82.8086V145.136H78.0726V166ZM94.5726 166H99.3086V145.136H94.5726V166ZM104.166 166H108.678V158.608C108.678 156.144 108.294 153.36 108.07 151.056H108.198L110.246 155.6L115.686 166H120.518V145.136H116.038V152.496C116.038 154.96 116.422 157.904 116.646 160.112H116.518L114.438 155.504L108.998 145.136H104.166V166ZM125.416 166H130.152V160.4L132.584 157.2L137.64 166H142.824L135.336 153.456L141.64 145.136H136.488L130.248 153.68H130.152V145.136H125.416V166ZM145.041 166H158.449V162.032H149.777V157.232H156.881V153.296H149.777V149.104H158.129V145.136H145.041V166ZM162.51 166H168.686C174.798 166 178.894 162.64 178.894 155.472C178.894 148.304 174.798 145.136 168.398 145.136H162.51V166ZM167.246 162.192V148.944H168.142C171.662 148.944 174.062 150.48 174.062 155.472C174.062 160.464 171.662 162.192 168.142 162.192H167.246ZM80.787 195.384C86.419 195.384 90.259 191.288 90.259 184.472C90.259 177.688 86.419 173.752 80.787 173.752C75.187 173.752 71.315 177.656 71.315 184.472C71.315 191.288 75.187 195.384 80.787 195.384ZM80.787 191.32C77.971 191.32 76.147 188.664 76.147 184.472C76.147 180.312 77.971 177.816 80.787 177.816C83.635 177.816 85.427 180.312 85.427 184.472C85.427 188.664 83.635 191.32 80.787 191.32ZM98.8868 177.88H101.287C103.751 177.88 105.095 178.584 105.095 180.632C105.095 182.68 103.751 183.736 101.287 183.736H98.8868V177.88ZM110.727 195L106.023 186.648C108.231 185.656 109.735 183.704 109.735 180.632C109.735 175.672 106.087 174.136 101.671 174.136H94.1508V195H98.8868V187.48H101.447L105.447 195H110.727ZM113.838 195H120.014C126.126 195 130.222 191.64 130.222 184.472C130.222 177.304 126.126 174.136 119.726 174.136H113.838V195ZM118.574 191.192V177.944H119.47C122.99 177.944 125.39 179.48 125.39 184.472C125.39 189.464 122.99 191.192 119.47 191.192H118.574ZM134.12 195H147.528V191.032H138.856V186.232H145.96V182.296H138.856V178.104H147.208V174.136H134.12V195ZM156.324 177.88H158.724C161.188 177.88 162.532 178.584 162.532 180.632C162.532 182.68 161.188 183.736 158.724 183.736H156.324V177.88ZM168.164 195L163.46 186.648C165.668 185.656 167.172 183.704 167.172 180.632C167.172 175.672 163.524 174.136 159.108 174.136H151.588V195H156.324V187.48H158.884L162.884 195H168.164ZM169.494 192.376C171.638 194.36 174.518 195.384 177.238 195.384C182.198 195.384 185.078 192.376 185.078 188.92C185.078 185.976 183.478 184.28 180.95 183.256L178.294 182.168C176.47 181.432 175.094 180.984 175.094 179.704C175.094 178.52 176.15 177.816 177.75 177.816C179.414 177.816 180.726 178.424 182.102 179.48L184.47 176.504C182.678 174.712 180.15 173.752 177.75 173.752C173.43 173.752 170.326 176.504 170.326 179.96C170.326 183 172.374 184.792 174.55 185.656L177.238 186.808C179.062 187.576 180.246 187.992 180.246 189.304C180.246 190.552 179.286 191.32 177.334 191.32C175.606 191.32 173.686 190.424 172.214 189.144L169.494 192.376Z" fill="#2E56B8"/>
<path d="M54.19 210.1C53.75 209.94 53.03 209.74 52.21 209.74C49.53 209.74 48.55 211.46 48.55 213.56V214.1L47.23 214.2V216.38H48.55V224H51.49V216.38H53.27V214.08H51.49V213.48C51.49 212.46 51.91 212.06 52.63 212.06C52.95 212.06 53.31 212.14 53.65 212.26L54.19 210.1ZM54.0911 219.04C54.0911 222.34 56.4111 224.24 58.9311 224.24C61.4311 224.24 63.7511 222.34 63.7511 219.04C63.7511 215.74 61.4311 213.84 58.9311 213.84C56.4111 213.84 54.0911 215.74 54.0911 219.04ZM57.1111 219.04C57.1111 217.32 57.7111 216.22 58.9311 216.22C60.1311 216.22 60.7511 217.32 60.7511 219.04C60.7511 220.76 60.1311 221.86 58.9311 221.86C57.7111 221.86 57.1111 220.76 57.1111 219.04ZM65.7648 224H68.7048V218.24C69.2248 216.9 70.1448 216.42 70.8848 216.42C71.3048 216.42 71.6048 216.48 71.9648 216.58L72.4448 214.04C72.1648 213.92 71.8248 213.84 71.2648 213.84C70.2448 213.84 69.1648 214.48 68.4448 215.82H68.3648L68.1648 214.08H65.7648V224ZM79.2738 224H82.9138L84.1538 218.08C84.3538 217.08 84.5138 216.02 84.6738 215.06H84.7538C84.8938 216.02 85.0738 217.08 85.2738 218.08L86.5538 224H90.2538L92.5738 210.96H89.7538L88.8538 217.06C88.6738 218.4 88.4938 219.78 88.3338 221.18H88.2538C87.9938 219.78 87.7338 218.38 87.4738 217.06L86.0538 210.96H83.5538L82.1538 217.06C81.8938 218.42 81.6338 219.8 81.3938 221.18H81.3138C81.1338 219.8 80.9538 218.42 80.7738 217.06L79.8738 210.96H76.8538L79.2738 224ZM93.5442 219.04C93.5442 222.34 95.8642 224.24 98.3842 224.24C100.884 224.24 103.204 222.34 103.204 219.04C103.204 215.74 100.884 213.84 98.3842 213.84C95.8642 213.84 93.5442 215.74 93.5442 219.04ZM96.5642 219.04C96.5642 217.32 97.1642 216.22 98.3842 216.22C99.5842 216.22 100.204 217.32 100.204 219.04C100.204 220.76 99.5842 221.86 98.3842 221.86C97.1642 221.86 96.5642 220.76 96.5642 219.04ZM104.638 219.04C104.638 222.34 106.958 224.24 109.478 224.24C111.978 224.24 114.298 222.34 114.298 219.04C114.298 215.74 111.978 213.84 109.478 213.84C106.958 213.84 104.638 215.74 104.638 219.04ZM107.658 219.04C107.658 217.32 108.258 216.22 109.478 216.22C110.678 216.22 111.298 217.32 111.298 219.04C111.298 220.76 110.678 221.86 109.478 221.86C108.258 221.86 107.658 220.76 107.658 219.04ZM115.912 217.56C115.912 221.94 118.672 224.24 122.052 224.24C123.672 224.24 125.112 223.58 126.192 222.32L124.572 220.54C123.932 221.24 123.172 221.7 122.092 221.7C120.192 221.7 118.932 220.14 118.932 217.46C118.932 214.84 120.352 213.26 122.172 213.26C123.092 213.26 123.712 213.64 124.372 214.24L125.992 212.42C125.112 211.52 123.752 210.72 122.132 210.72C118.772 210.72 115.912 213.24 115.912 217.56ZM127.333 219.04C127.333 222.34 129.653 224.24 132.173 224.24C134.673 224.24 136.993 222.34 136.993 219.04C136.993 215.74 134.673 213.84 132.173 213.84C129.653 213.84 127.333 215.74 127.333 219.04ZM130.353 219.04C130.353 217.32 130.953 216.22 132.173 216.22C133.373 216.22 133.993 217.32 133.993 219.04C133.993 220.76 133.373 221.86 132.173 221.86C130.953 221.86 130.353 220.76 130.353 219.04ZM139.007 224H141.947V217.3C142.567 216.66 143.147 216.34 143.627 216.34C144.467 216.34 144.847 216.78 144.847 218.22V224H147.787V217.3C148.427 216.66 148.987 216.34 149.487 216.34C150.327 216.34 150.707 216.78 150.707 218.22V224H153.647V217.84C153.647 215.36 152.687 213.84 150.547 213.84C149.227 213.84 148.307 214.6 147.427 215.5C146.927 214.44 146.087 213.84 144.687 213.84C143.387 213.84 142.507 214.54 141.687 215.36H141.607L141.407 214.08H139.007V224ZM156.155 224H159.095V217.3C159.715 216.66 160.295 216.34 160.775 216.34C161.615 216.34 161.995 216.78 161.995 218.22V224H164.935V217.3C165.575 216.66 166.135 216.34 166.635 216.34C167.475 216.34 167.855 216.78 167.855 218.22V224H170.795V217.84C170.795 215.36 169.835 213.84 167.695 213.84C166.375 213.84 165.455 214.6 164.575 215.5C164.075 214.44 163.235 213.84 161.835 213.84C160.535 213.84 159.655 214.54 158.835 215.36H158.755L158.555 214.08H156.155V224ZM172.724 219.04C172.724 222.32 174.904 224.24 177.744 224.24C178.924 224.24 180.244 223.82 181.264 223.12L180.284 221.34C179.564 221.78 178.884 222 178.144 222C176.824 222 175.824 221.34 175.564 219.84H181.504C181.564 219.6 181.624 219.12 181.624 218.6C181.624 215.9 180.224 213.84 177.404 213.84C175.024 213.84 172.724 215.82 172.724 219.04ZM175.544 218.02C175.744 216.7 176.544 216.08 177.464 216.08C178.644 216.08 179.124 216.88 179.124 218.02H175.544ZM183.655 224H186.595V218.24C187.115 216.9 188.035 216.42 188.775 216.42C189.195 216.42 189.495 216.48 189.855 216.58L190.335 214.04C190.055 213.92 189.715 213.84 189.155 213.84C188.135 213.84 187.055 214.48 186.335 215.82H186.255L186.055 214.08H183.655V224ZM190.849 219.04C190.849 222.34 192.989 224.24 195.749 224.24C196.829 224.24 198.089 223.84 199.049 223L197.869 221.14C197.389 221.52 196.809 221.86 196.089 221.86C194.809 221.86 193.869 220.76 193.869 219.04C193.869 217.32 194.769 216.22 196.189 216.22C196.649 216.22 197.089 216.4 197.569 216.8L198.909 214.98C198.249 214.3 197.229 213.84 196.009 213.84C193.269 213.84 190.849 215.74 190.849 219.04ZM199.618 219.04C199.618 222.32 201.798 224.24 204.638 224.24C205.818 224.24 207.138 223.82 208.158 223.12L207.178 221.34C206.458 221.78 205.778 222 205.038 222C203.718 222 202.718 221.34 202.458 219.84H208.398C208.458 219.6 208.518 219.12 208.518 218.6C208.518 215.9 207.118 213.84 204.298 213.84C201.918 213.84 199.618 215.82 199.618 219.04ZM202.438 218.02C202.638 216.7 203.438 216.08 204.358 216.08C205.538 216.08 206.018 216.88 206.018 218.02H202.438Z" fill="#455359"/>
<path d="M150.665 58.0004H150.655L150.645 58.0006C148.685 58.0396 146.808 58.7952 145.367 60.1245C143.925 61.4538 143.02 63.2649 142.819 65.2164L142.819 65.2258L142.818 65.2352L139.034 110.589C138.939 111.533 139.044 112.485 139.342 113.385C139.642 114.288 140.129 115.117 140.771 115.818C141.414 116.519 142.197 117.076 143.07 117.452C143.941 117.827 144.881 118.013 145.828 117.999H221.338H221.347L221.356 117.999C223.317 117.963 225.197 117.208 226.639 115.878C228.081 114.548 228.986 112.735 229.183 110.782L229.184 110.773L229.185 110.764L232.968 65.4147C232.969 65.4124 232.969 65.41 232.969 65.4076C233.059 64.4652 232.951 63.5142 232.651 62.6162C232.35 61.716 231.863 60.8892 231.222 60.1897C230.581 59.4902 229.8 58.9337 228.93 58.5565C228.061 58.18 227.123 57.9905 226.177 58.0004H150.665Z" fill="white" stroke="#82B3F4" stroke-width="2"/>
<path d="M129.235 80L141 89L129.235 98L129.235 93.765L114 93.765L114 84.235L129.235 84.235L129.235 80Z" fill="#2F80ED"/>
<path d="M34.6646 58.0004H34.6546L34.6447 58.0006C32.6852 58.0396 30.8079 58.7952 29.3666 60.1245C27.9253 61.4538 27.0195 63.2649 26.8195 65.2164L26.8185 65.2258L26.8177 65.2352L23.0337 110.589C22.939 111.533 23.0442 112.485 23.3425 113.385C23.6417 114.288 24.1286 115.117 24.7711 115.818C25.4136 116.519 26.1971 117.076 27.0702 117.452L27.4657 116.534L27.0702 117.452C27.9408 117.827 28.8805 118.013 29.8281 117.999H105.338H105.347L105.356 117.999C107.317 117.963 109.197 117.208 110.639 115.878C112.081 114.548 112.986 112.735 113.183 110.782L113.184 110.773L113.185 110.764L116.968 65.4147C116.969 65.4124 116.969 65.41 116.969 65.4076C117.059 64.4652 116.951 63.5142 116.651 62.6162L115.703 62.9331L116.651 62.6162C116.35 61.716 115.863 60.8892 115.222 60.1897L114.485 60.8654L115.222 60.1897C114.581 59.4902 113.8 58.9337 112.93 58.5565L112.532 59.474L112.93 58.5564C112.061 58.18 111.123 57.9905 110.177 58.0004H34.6646Z" fill="white" stroke="#82B3F4" stroke-width="2"/>
<path opacity="0.5" d="M47.7956 83.9997H34.625C34.2601 84.0051 33.8981 83.9327 33.5629 83.7872C33.2278 83.6418 32.927 83.4265 32.6803 83.1556C32.4336 82.8847 32.2466 82.5643 32.1317 82.2155C32.0167 81.8667 31.9764 81.4973 32.0133 81.1317L33.1201 67.8684C33.2016 67.0928 33.561 66.3737 34.1311 65.8458C34.7011 65.3179 35.4426 65.0173 36.2169 65.0003H49.375C49.74 64.9949 50.1019 65.0673 50.4371 65.2128C50.7722 65.3582 51.073 65.5735 51.3197 65.8444C51.5664 66.1153 51.7533 66.4357 51.8683 66.7845C51.9833 67.1333 52.0236 67.5027 51.9868 67.8684L50.9296 81.1317C50.8526 81.9157 50.4895 82.643 49.9105 83.1729C49.3315 83.7027 48.5779 83.9973 47.7956 83.9997Z" fill="#2F80ED"/>
<path opacity="0.5" d="M163.796 83.9997H150.625C150.26 84.0051 149.898 83.9327 149.563 83.7872C149.228 83.6418 148.927 83.4265 148.68 83.1556C148.434 82.8847 148.247 82.5643 148.132 82.2155C148.017 81.8667 147.976 81.4973 148.013 81.1317L149.12 67.8684C149.202 67.0928 149.561 66.3737 150.131 65.8458C150.701 65.3179 151.443 65.0173 152.217 65.0003H165.375C165.74 64.9949 166.102 65.0673 166.437 65.2128C166.772 65.3582 167.073 65.5735 167.32 65.8444C167.566 66.1153 167.753 66.4357 167.868 66.7845C167.983 67.1333 168.024 67.5027 167.987 67.8684L166.93 81.1317C166.853 81.9157 166.489 82.643 165.91 83.1729C165.331 83.7027 164.578 83.9973 163.796 83.9997Z" fill="#2F80ED"/>
<path opacity="0.5" d="M105.518 95H33.2572C33.0829 95.0008 32.9103 94.9613 32.7505 94.8842C32.5908 94.8071 32.4473 94.694 32.3295 94.5521C32.2116 94.4103 32.1219 94.2428 32.066 94.0604C32.0101 93.8781 31.9894 93.6848 32.0051 93.4931C32.0443 93.0906 32.2144 92.7176 32.4838 92.443C32.7532 92.1685 33.1036 92.0111 33.4701 92H105.744C105.917 91.9994 106.088 92.0385 106.247 92.1147C106.406 92.191 106.549 92.3029 106.667 92.4432C106.784 92.5835 106.874 92.7493 106.931 92.93C106.988 93.1107 107.01 93.3025 106.996 93.4931C106.959 93.9003 106.789 94.2786 106.516 94.5563C106.244 94.834 105.889 94.9919 105.518 95Z" fill="#2F80ED"/>
<path opacity="0.5" d="M221.518 95H149.257C149.083 95.0008 148.91 94.9613 148.751 94.8842C148.591 94.8071 148.447 94.694 148.329 94.5521C148.212 94.4103 148.122 94.2428 148.066 94.0604C148.01 93.8781 147.989 93.6848 148.005 93.4931C148.044 93.0906 148.214 92.7176 148.484 92.443C148.753 92.1685 149.104 92.0111 149.47 92H221.744C221.917 91.9994 222.088 92.0385 222.247 92.1147C222.406 92.191 222.549 92.3029 222.667 92.4432C222.784 92.5835 222.874 92.7493 222.931 92.93C222.988 93.1107 223.01 93.3025 222.996 93.4931C222.959 93.9003 222.789 94.2786 222.516 94.5563C222.244 94.834 221.889 94.9919 221.518 95Z" fill="#2F80ED"/>
<path opacity="0.2" d="M95.6234 73.9998H62.0107C61.7306 74.0036 61.4531 73.9395 61.1962 73.8118C60.9393 73.6842 60.7088 73.4958 60.52 73.2591C60.3311 73.0224 60.1881 72.7427 60.1003 72.4383C60.0124 72.1339 59.9818 71.8117 60.0104 71.4927C60.0719 70.8184 60.3465 70.1931 60.7824 69.7341C61.2183 69.2751 61.7856 69.0141 62.3778 69.0001H95.9906C96.2694 68.9966 96.5458 69.0604 96.8018 69.1871C97.0577 69.3139 97.2875 69.5009 97.4762 69.736C97.6648 69.9711 97.8081 70.249 97.8968 70.5517C97.9855 70.8543 98.0176 71.175 97.9909 71.4927C97.9322 72.1697 97.659 72.7985 97.2227 73.2605C96.7865 73.7224 96.2176 73.9855 95.6234 73.9998Z" fill="#17282F"/>
<path opacity="0.2" d="M211.623 73.9998H178.011C177.731 74.0036 177.453 73.9395 177.196 73.8118C176.939 73.6842 176.709 73.4958 176.52 73.2591C176.331 73.0224 176.188 72.7427 176.1 72.4383C176.012 72.1339 175.982 71.8117 176.01 71.4927C176.072 70.8184 176.346 70.1931 176.782 69.7341C177.218 69.2751 177.786 69.0141 178.378 69.0001H211.991C212.269 68.9966 212.546 69.0604 212.802 69.1871C213.058 69.3139 213.287 69.5009 213.476 69.736C213.665 69.9711 213.808 70.249 213.897 70.5517C213.986 70.8543 214.018 71.175 213.991 71.4927C213.932 72.1697 213.659 72.7985 213.223 73.2605C212.787 73.7224 212.218 73.9855 211.623 73.9998Z" fill="#17282F"/>
<path opacity="0.2" d="M81.7394 79.9999H61.9519C61.681 80.0027 61.4125 79.9517 61.1639 79.8503C60.9153 79.7489 60.6921 79.5992 60.5089 79.4112C60.3256 79.2231 60.1864 79.0008 60.1002 78.7586C60.0141 78.5165 59.9829 78.26 60.0088 78.0058C60.0658 77.4643 60.3313 76.9612 60.755 76.5916C61.1788 76.2221 61.7314 76.0116 62.3086 76.0001H82.0468C82.3189 75.9972 82.5885 76.0484 82.838 76.1505C83.0876 76.2526 83.3114 76.4033 83.4949 76.5927C83.6783 76.7821 83.8173 77.0059 83.9026 77.2494C83.9879 77.4929 84.0177 77.7507 83.9899 78.0058C83.9314 78.5376 83.6717 79.0317 83.2585 79.3978C82.8452 79.764 82.306 79.9777 81.7394 79.9999Z" fill="#17282F"/>
<path opacity="0.2" d="M197.739 79.9999H177.952C177.681 80.0027 177.413 79.9517 177.164 79.8503C176.915 79.7489 176.692 79.5992 176.509 79.4112C176.326 79.2231 176.186 79.0008 176.1 78.7586C176.014 78.5165 175.983 78.26 176.009 78.0058C176.066 77.4643 176.331 76.9612 176.755 76.5916C177.179 76.2221 177.731 76.0116 178.309 76.0001H198.047C198.319 75.9972 198.589 76.0484 198.838 76.1505C199.088 76.2526 199.311 76.4033 199.495 76.5927C199.678 76.7821 199.817 77.0059 199.903 77.2494C199.988 77.4929 200.018 77.7507 199.99 78.0058C199.931 78.5376 199.672 79.0317 199.258 79.3978C198.845 79.764 198.306 79.9777 197.739 79.9999Z" fill="#17282F"/>
</svg>
